<svg width="47" height="40" viewBox="0 0 47 40" fill="none" xmlns="http://www.w3.org/2000/svg">
<path d="M23.1832 7.44027C20.7428 4.33427 16.9809 1.22827 7.65759 1.00034C7.0452 0.985384 6.54579 1.4828 6.54579 2.09536C6.54579 6.63955 6.54579 23.8432 6.54579 28.9311C6.54579 29.5436 7.04525 30.0248 7.65748 30.0447C16.9809 30.3495 20.7428 34.4831 23.1832 37.5892M23.1832 7.44027C25.6236 4.33427 29.3854 1.22827 38.7088 1.00034C39.3212 0.985384 39.8206 1.47162 39.8206 2.08418C39.8206 7.16382 39.8206 23.8499 39.8206 28.9296C39.8206 29.5421 39.3212 30.0248 38.709 30.0447C29.3856 30.3495 25.6236 34.4831 23.1832 37.5892M23.1832 7.44027V37.5892" stroke="#393F5C" stroke-width="2" stroke-linejoin="round"/>
<path d="M39.2334 5.42361H44.2572C44.8697 5.42361 45.3664 5.92021 45.3664 6.53277V35.4574C45.3664 36.355 44.3089 36.9512 43.4886 36.5868C41.7248 35.803 38.7813 34.8456 34.9272 34.8456C28.4027 34.8456 23.1832 38.6984 23.1832 38.6984C23.1832 38.6984 17.9636 34.8456 11.4391 34.8456C7.58497 34.8456 4.6415 35.803 2.87774 36.5868C2.05743 36.9512 1 36.355 1 35.4574V6.53277C1 5.92021 1.49659 5.42361 2.10916 5.42361H7.13301" stroke="#393F5C" stroke-width="2" stroke-linejoin="round"/>
</svg>
